PathFileType  4	(X/Y/Z) C:\Users\antoi\Documents\MyRepositories\mobilecap\ResultsAnalysis
DataRate	CameraRate	NumFrames	NumMarkers	Units	OrigDataRate	OrigDataStartFrame	OrigNumFrames
100.0	100.0	4	51	mm	100.0	125	248
Frame#	Time	r_knee			r_shank_antsup			r_ankle			r_calc			r_5meta			r_toe			L_knee			L_shank_antsup			L_ankle			L_calc			L_5meta			L_toe			r_sh2			r_sh3			r_sh4			L_sh2			L_sh3			r_thigh1			r_thigh2			r_thigh3			r_thigh4			r_thigh5			L_thigh1			L_thigh2			L_thigh3			L_thigh4			r.ASIS			r.PSIS			L.ASIS			L.PSIS			C7			R_Shoulder			L_Shoulder			R_Sternum			L_Sternum			R_humerus			R_elbow_med			R_elbow_lat			R_forearm			R_wrist_radius			R_wrist_ulna			L_humerus			L_elbow_med			L_elbow_lat			L_forearm			L_wrist_radius			L_wrist_ulna			R_HJC			L_HJC			R_HJC_reg			L_HJC_reg			
		X1	Y1	Z1	X2	Y2	Z2	X3	Y3	Z3	X4	Y4	Z4	X5	Y5	Z5	X6	Y6	Z6	X7	Y7	Z7	X8	Y8	Z8	X9	Y9	Z9	X10	Y10	Z10	X11	Y11	Z11	X12	Y12	Z12	X13	Y13	Z13	X14	Y14	Z14	X15	Y15	Z15	X16	Y16	Z16	X17	Y17	Z17	X18	Y18	Z18	X19	Y19	Z19	X20	Y20	Z20	X21	Y21	Z21	X22	Y22	Z22	X23	Y23	Z23	X24	Y24	Z24	X25	Y25	Z25	X26	Y26	Z26	X27	Y27	Z27	X28	Y28	Z28	X29	Y29	Z29	X30	Y30	Z30	X31	Y31	Z31	X32	Y32	Z32	X33	Y33	Z33	X34	Y34	Z34	X35	Y35	Z35	X36	Y36	Z36	X37	Y37	Z37	X38	Y38	Z38	X39	Y39	Z39	X40	Y40	Z40	X41	Y41	Z41	X42	Y42	Z42	X43	Y43	Z43	X44	Y44	Z44	X45	Y45	Z45	X46	Y46	Z46	X47	Y47	Z47	X48	Y48	Z48	X49	Y49	Z49	X50	Y50	Z50	X51	Y51	Z51	

125	1.24000000	-154.17605	523.15442	-433.04295	-119.41224	400.30446	-443.49392	-271.41736	97.62803	-444.87048	-345.86197	65.05066	-496.17155	-150.70360	34.18729	-401.95913	-105.21531	56.43490	-473.93900	-212.62012	505.46060	-883.46864	-154.96671	406.49515	-866.15407	-297.40437	92.05436	-808.58242	-360.27187	68.94019	-746.70364	-175.06768	34.38613	-856.82784	-128.27690	57.26690	-794.43142	-140.03461	287.96378	-469.50975	-181.68314	398.10313	-396.89168	-193.14122	282.25435	-403.38196	-239.88096	412.67810	-895.30331	-234.33583	291.29436	-894.59884	-228.91064	763.92996	-465.46623	-155.91717	676.95286	-470.05677	-158.94150	641.81449	-412.57784	-286.88725	708.32261	-384.04868	-207.50195	620.00288	-395.49338	-316.91482	744.07895	-874.14052	-222.34142	648.11377	-890.96001	-399.15488	664.43075	-878.74603	-300.76071	568.28379	-889.97765	-345.30166	883.06315	-501.20874	-531.13602	982.08351	-570.35582	-373.58795	866.32950	-755.71017	-541.60053	979.14343	-672.01444	-175.69081	1371.29627	-634.35178	-135.70646	1301.96553	-456.40737	-138.79416	1320.97680	-800.21152	-94.64967	1227.86237	-614.75710	-99.76976	1225.60336	-663.13063	-275.85136	1262.38565	-364.95371	-506.12199	1324.94742	-412.59866	-481.31585	1302.59985	-332.56870	-605.65810	1173.67402	-359.78097	-711.10136	1111.45077	-375.62636	-722.25194	1129.70993	-334.54163	-284.00563	1293.47378	-905.44701	-507.26119	1329.97228	-856.27284	-488.51614	1308.00540	-933.43976	-568.65533	1158.79752	-883.37320	-649.43795	1072.80200	-884.41856	-666.90412	1085.68934	-929.87861	-453.84760	836.58902	-520.06743	-476.03220	811.60523	-730.82698	-444.56318	830.52174	-525.90426	-461.90211	825.65297	-694.31230	
126	1.25000000	-141.55536	514.76268	-433.65893	-106.17265	395.26328	-445.22268	-269.98207	99.79225	-447.28505	-345.02431	67.40067	-497.82041	-150.91765	36.51645	-402.52353	-104.91554	56.75574	-475.01439	-195.54737	505.97388	-887.24079	-138.76249	403.96349	-870.44874	-292.49919	95.68374	-810.94121	-359.83072	72.08333	-745.40247	-174.40436	34.71079	-856.58747	-126.17654	57.26287	-794.92698	-131.48382	284.05608	-471.08126	-168.81234	396.48445	-399.17269	-185.67953	280.92941	-405.95313	-222.57990	415.13338	-900.75619	-225.22576	294.17317	-897.85000	-224.93410	752.47253	-461.02464	-147.04582	670.10204	-466.96183	-150.11567	631.14058	-412.48533	-281.39963	690.32660	-384.07504	-198.07331	606.52186	-397.36116	-315.91419	736.45969	-874.95725	-213.88226	648.11107	-893.57333	-391.37535	650.84889	-879.39605	-286.10133	562.47190	-892.82787	-345.83088	856.77173	-500.22453	-528.13022	960.44410	-570.39481	-372.92645	839.52705	-754.61070	-538.66250	958.03286	-671.50078	-160.79190	1337.67626	-635.46262	-123.25606	1266.61966	-456.69572	-126.11934	1284.78150	-802.46393	-83.35927	1192.49908	-615.60999	-88.76185	1189.94946	-663.83740	-265.22445	1225.78909	-367.56753	-494.23898	1291.45958	-415.19386	-470.57305	1266.41390	-335.51807	-600.92847	1141.70618	-367.10638	-706.12194	1083.49531	-383.05472	-716.61770	1101.45040	-341.80322	-273.13394	1253.77768	-905.70058	-495.16206	1291.26871	-854.80789	-477.63161	1267.03374	-931.60230	-561.49637	1121.01036	-878.57193	-644.52536	1037.09276	-878.32799	-661.05201	1050.08769	-925.03957	-455.35027	813.18315	-519.14956	-477.34120	788.09857	-729.91747	-445.65104	806.17833	-524.98422	-463.18269	802.16704	-693.26287	
127	1.26000000	-123.99075	514.52721	-434.35490	-93.87245	393.75533	-446.88891	-267.78458	103.28811	-446.71815	-344.73015	70.00598	-497.80294	-150.48187	36.49622	-402.85871	-104.08605	56.81731	-475.01677	-179.05194	505.60866	-890.11645	-129.95691	399.73354	-874.07283	-294.11220	96.10779	-812.09648	-360.31310	71.14699	-746.00972	-174.34495	33.89853	-857.40529	-126.60783	57.11211	-796.10712	-124.33303	283.65306	-469.87235	-155.98204	399.72727	-400.11124	-179.09728	284.57048	-405.34941	-213.27475	417.40095	-903.03078	-225.60479	296.54693	-899.42543	-222.89403	745.73507	-459.92587	-139.77536	669.45880	-467.87014	-140.32440	628.41923	-414.81034	-275.03017	677.58290	-385.17511	-186.48975	600.12693	-400.43561	-315.28969	730.12540	-871.91943	-206.45413	648.59373	-890.77943	-383.84802	639.92268	-880.71211	-273.12816	558.84348	-896.94148	-348.59206	835.10039	-498.75482	-525.40751	941.52209	-568.80389	-373.76819	818.09800	-754.15855	-534.88064	938.69870	-670.21093	-145.07800	1305.26019	-636.94914	-110.36509	1231.54861	-457.25188	-113.29666	1248.49567	-804.74955	-72.76273	1156.97935	-616.56375	-78.53637	1154.25860	-664.53972	-254.05046	1189.57338	-370.00622	-481.59595	1257.73420	-417.55320	-459.17850	1230.04387	-338.00632	-594.13877	1109.45097	-373.45751	-699.70683	1054.73209	-389.66834	-709.49319	1071.90041	-348.45764	-261.83273	1213.69044	-905.77481	-482.82117	1252.10863	-853.91649	-466.24835	1225.62382	-930.85804	-553.42472	1082.38938	-874.97311	-638.41608	1000.42641	-873.34742	-653.33037	1013.46954	-921.85542	-457.16249	792.89642	-518.13011	-478.80205	768.63073	-729.03232	-449.08707	786.75598	-524.51590	-464.87891	782.05840	-693.45378	
128	1.27000000	-109.76813	515.95537	-433.85557	-85.02209	391.35151	-446.76706	-266.30114	104.58735	-444.84402	-344.67296	70.92970	-496.61804	-149.98397	35.18330	-402.58938	-103.39081	56.88653	-474.04571	-168.52241	501.35138	-890.75271	-123.97160	394.45402	-875.36031	-295.34769	93.83470	-813.52034	-361.25000	69.79259	-747.00396	-174.65538	33.32817	-858.11293	-127.96058	56.93139	-796.57151	-118.91271	282.23652	-468.00325	-145.94379	399.85411	-398.56845	-173.03970	285.48424	-402.97350	-207.89461	415.50882	-900.87495	-223.26908	294.49527	-900.88105	-224.61499	740.03650	-461.85874	-136.99469	669.42453	-470.37445	-133.83492	629.41559	-416.50611	-271.26573	669.41495	-385.89824	-177.63853	598.17712	-400.65050	-315.06472	722.02758	-867.99028	-201.63668	646.05324	-887.04110	-378.56088	629.31015	-882.21400	-264.18605	553.88220	-900.00458	-355.35044	818.16149	-498.98865	-523.02621	923.96600	-567.74542	-379.12251	799.84377	-754.73446	-531.21705	919.80730	-669.88255	-129.40602	1274.16610	-638.55279	-97.32548	1197.15756	-457.65926	-100.66439	1212.69392	-807.23282	-62.73899	1121.73177	-617.40524	-68.79397	1119.40729	-665.13887	-242.71761	1153.97071	-371.92686	-468.56129	1224.19125	-419.21100	-447.59637	1194.03707	-339.59174	-584.95148	1077.20631	-378.64199	-691.73862	1024.96459	-395.54006	-701.04611	1041.16308	-354.47992	-250.47942	1173.48901	-905.65617	-470.49767	1212.89897	-853.86548	-454.76649	1184.32256	-930.92708	-544.32567	1043.36914	-872.53113	-630.79827	962.98255	-869.67242	-644.75181	975.75182	-919.24412	-460.75303	775.58150	-517.74359	-482.88078	751.25211	-728.58215	-455.91334	771.53084	-525.57166	-469.48168	764.63939	-694.83726	
